<?xml version="1.0" encoding="utf-8" standalone="no"?>
<!DOCTYPE svg PUBLIC "-//W3C//DTD SVG 1.1//EN"
  "http://www.w3.org/Graphics/SVG/1.1/DTD/svg11.dtd">
<svg xmlns:xlink="http://www.w3.org/1999/xlink" width="746.206364pt" height="530.552018pt" viewBox="0 0 746.206364 530.552018" xmlns="http://www.w3.org/2000/svg" version="1.1">
 <metadata>
  <rdf:RDF xmlns:dc="http://purl.org/dc/elements/1.1/" xmlns:cc="http://creativecommons.org/ns#" xmlns:rdf="http://www.w3.org/1999/02/22-rdf-syntax-ns#">
   <cc:Work>
    <dc:type rdf:resource="http://purl.org/dc/dcmitype/StillImage"/>
    <dc:date>2026-07-02T10:49:20.327140</dc:date>
    <dc:format>image/svg+xml</dc:format>
    <dc:creator>
     <cc:Agent>
      <dc:title>Matplotlib v3.9.4, https://matplotlib.org/</dc:title>
     </cc:Agent>
    </dc:creator>
   </cc:Work>
  </rdf:RDF>
 </metadata>
 <defs>
  <style type="text/css">*{stroke-linejoin: round; stroke-linecap: butt}</style>
 </defs>
 <g id="figure_1">
  <g id="patch_1">
   <path d="M 0 530.552018 
L 746.206364 530.552018 
L 746.206364 0 
L 0 0 
z
" style="fill: #ffffff"/>
  </g>
  <g id="axes_1">
   <g id="patch_2">
    <path d="M 46.546364 226.716381 
L 363.591818 226.716381 
L 363.591818 20.076381 
L 46.546364 20.076381 
z
" style="fill: #ffffff"/>
   </g>
   <g id="patch_3">
    <path d="M 0 0 
z
" clip-path="url(#p877a986934)" style="fill: #0072b2"/>
   </g>
   <g id="patch_4">
    <path d="M 0 0 
z
" clip-path="url(#p877a986934)" style="fill: #0072b2"/>
   </g>
   <g id="patch_5">
    <path d="M 0 0 
z
" clip-path="url(#p877a986934)" style="fill: #d55e00"/>
   </g>
   <g id="patch_6">
    <path d="M 60.957521 226.716381 
L 189.056694 226.716381 
L 189.056694 30.254703 
L 60.957521 30.254703 
z
" clip-path="url(#p877a986934)" style="fill: #009e73"/>
   </g>
   <g id="patch_7">
    <path d="M 221.081488 226.716381 
L 349.180661 226.716381 
L 349.180661 67.182114 
L 221.081488 67.182114 
z
" clip-path="url(#p877a986934)" style="fill: #009e73"/>
   </g>
   <g id="patch_8">
    <path d="M 0 0 
z
" clip-path="url(#p877a986934)" style="fill: #009e73"/>
   </g>
   <g id="patch_9">
    <path d="M 0 0 
z
" clip-path="url(#p877a986934)" style="fill: #009e73"/>
   </g>
   <g id="matplotlib.axis_1">
    <g id="xtick_1">
     <g id="line2d_1">
      <defs>
       <path id="m5815069ebf" d="M 0 0 
L 0 3.5 
" style="stroke: #000000; stroke-width: 0.8"/>
      </defs>
      <g>
       <use xlink:href="#m5815069ebf" x="125.007107" y="226.716381" style="stroke: #000000; stroke-width: 0.8"/>
      </g>
     </g>
     <g id="text_1">
      <!-- 8B PP2+FSDP -->
      <g transform="translate(84.81379 265.723158) rotate(-35) scale(0.08 -0.08)">
       <defs>
        <path id="TimesNewRomanPSMT-38" d="M 1228 2134 
Q 725 2547 579 2797 
Q 434 3047 434 3316 
Q 434 3728 753 4026 
Q 1072 4325 1600 4325 
Q 2113 4325 2425 4047 
Q 2738 3769 2738 3413 
Q 2738 3175 2569 2928 
Q 2400 2681 1866 2347 
Q 2416 1922 2594 1678 
Q 2831 1359 2831 1006 
Q 2831 559 2490 242 
Q 2150 -75 1597 -75 
Q 994 -75 656 303 
Q 388 606 388 966 
Q 388 1247 577 1523 
Q 766 1800 1228 2134 
z
M 1719 2469 
Q 2094 2806 2194 3001 
Q 2294 3197 2294 3444 
Q 2294 3772 2109 3958 
Q 1925 4144 1606 4144 
Q 1288 4144 1088 3959 
Q 888 3775 888 3528 
Q 888 3366 970 3203 
Q 1053 3041 1206 2894 
L 1719 2469 
z
M 1375 2016 
Q 1116 1797 991 1539 
Q 866 1281 866 981 
Q 866 578 1086 336 
Q 1306 94 1647 94 
Q 1984 94 2187 284 
Q 2391 475 2391 747 
Q 2391 972 2272 1150 
Q 2050 1481 1375 2016 
z
" transform="scale(0.015625)"/>
        <path id="TimesNewRomanPSMT-42" d="M 2956 2163 
Q 3397 2069 3616 1863 
Q 3919 1575 3919 1159 
Q 3919 844 3719 555 
Q 3519 266 3170 133 
Q 2822 0 2106 0 
L 106 0 
L 106 116 
L 266 116 
Q 531 116 647 284 
Q 719 394 719 750 
L 719 3488 
Q 719 3881 628 3984 
Q 506 4122 266 4122 
L 106 4122 
L 106 4238 
L 1938 4238 
Q 2450 4238 2759 4163 
Q 3228 4050 3475 3764 
Q 3722 3478 3722 3106 
Q 3722 2788 3528 2536 
Q 3334 2284 2956 2163 
z
M 1319 2331 
Q 1434 2309 1582 2298 
Q 1731 2288 1909 2288 
Q 2366 2288 2595 2386 
Q 2825 2484 2947 2687 
Q 3069 2891 3069 3131 
Q 3069 3503 2766 3765 
Q 2463 4028 1881 4028 
Q 1569 4028 1319 3959 
L 1319 2331 
z
M 1319 306 
Q 1681 222 2034 222 
Q 2600 222 2897 476 
Q 3194 731 3194 1106 
Q 3194 1353 3059 1581 
Q 2925 1809 2622 1940 
Q 2319 2072 1872 2072 
Q 1678 2072 1540 2065 
Q 1403 2059 1319 2044 
L 1319 306 
z
" transform="scale(0.015625)"/>
        <path id="TimesNewRomanPSMT-20" transform="scale(0.015625)"/>
        <path id="TimesNewRomanPSMT-50" d="M 1313 1984 
L 1313 750 
Q 1313 350 1400 253 
Q 1519 116 1759 116 
L 1922 116 
L 1922 0 
L 106 0 
L 106 116 
L 266 116 
Q 534 116 650 291 
Q 713 388 713 750 
L 713 3488 
Q 713 3888 628 3984 
Q 506 4122 266 4122 
L 106 4122 
L 106 4238 
L 1659 4238 
Q 2228 4238 2556 4120 
Q 2884 4003 3109 3725 
Q 3334 3447 3334 3066 
Q 3334 2547 2992 2222 
Q 2650 1897 2025 1897 
Q 1872 1897 1694 1919 
Q 1516 1941 1313 1984 
z
M 1313 2163 
Q 1478 2131 1606 2115 
Q 1734 2100 1825 2100 
Q 2150 2100 2386 2351 
Q 2622 2603 2622 3003 
Q 2622 3278 2509 3514 
Q 2397 3750 2190 3867 
Q 1984 3984 1722 3984 
Q 1563 3984 1313 3925 
L 1313 2163 
z
" transform="scale(0.015625)"/>
        <path id="TimesNewRomanPSMT-32" d="M 2934 816 
L 2638 0 
L 138 0 
L 138 116 
Q 1241 1122 1691 1759 
Q 2141 2397 2141 2925 
Q 2141 3328 1894 3587 
Q 1647 3847 1303 3847 
Q 991 3847 742 3664 
Q 494 3481 375 3128 
L 259 3128 
Q 338 3706 661 4015 
Q 984 4325 1469 4325 
Q 1984 4325 2329 3994 
Q 2675 3663 2675 3213 
Q 2675 2891 2525 2569 
Q 2294 2063 1775 1497 
Q 997 647 803 472 
L 1909 472 
Q 2247 472 2383 497 
Q 2519 522 2628 598 
Q 2738 675 2819 816 
L 2934 816 
z
" transform="scale(0.015625)"/>
        <path id="TimesNewRomanPSMT-2b" d="M 1672 441 
L 1672 2000 
L 116 2000 
L 116 2256 
L 1672 2256 
L 1672 3809 
L 1922 3809 
L 1922 2256 
L 3484 2256 
L 3484 2000 
L 1922 2000 
L 1922 441 
L 1672 441 
z
" transform="scale(0.015625)"/>
        <path id="TimesNewRomanPSMT-46" d="M 1309 4006 
L 1309 2341 
L 2081 2341 
Q 2347 2341 2470 2458 
Q 2594 2575 2634 2922 
L 2750 2922 
L 2750 1488 
L 2634 1488 
Q 2631 1734 2570 1850 
Q 2509 1966 2401 2023 
Q 2294 2081 2081 2081 
L 1309 2081 
L 1309 750 
Q 1309 428 1350 325 
Q 1381 247 1481 191 
Q 1619 116 1769 116 
L 1922 116 
L 1922 0 
L 103 0 
L 103 116 
L 253 116 
Q 516 116 634 269 
Q 709 369 709 750 
L 709 3488 
Q 709 3809 669 3913 
Q 638 3991 541 4047 
Q 406 4122 253 4122 
L 103 4122 
L 103 4238 
L 3256 4238 
L 3297 3306 
L 3188 3306 
Q 3106 3603 2998 3742 
Q 2891 3881 2733 3943 
Q 2575 4006 2244 4006 
L 1309 4006 
z
" transform="scale(0.015625)"/>
        <path id="TimesNewRomanPSMT-53" d="M 2934 4334 
L 2934 2869 
L 2819 2869 
Q 2763 3291 2617 3541 
Q 2472 3791 2203 3937 
Q 1934 4084 1647 4084 
Q 1322 4084 1109 3886 
Q 897 3688 897 3434 
Q 897 3241 1031 3081 
Q 1225 2847 1953 2456 
Q 2547 2138 2764 1967 
Q 2981 1797 3098 1565 
Q 3216 1334 3216 1081 
Q 3216 600 2842 251 
Q 2469 -97 1881 -97 
Q 1697 -97 1534 -69 
Q 1438 -53 1133 45 
Q 828 144 747 144 
Q 669 144 623 97 
Q 578 50 556 -97 
L 441 -97 
L 441 1356 
L 556 1356 
Q 638 900 775 673 
Q 913 447 1195 297 
Q 1478 147 1816 147 
Q 2206 147 2432 353 
Q 2659 559 2659 841 
Q 2659 997 2573 1156 
Q 2488 1316 2306 1453 
Q 2184 1547 1640 1851 
Q 1097 2156 867 2337 
Q 638 2519 519 2737 
Q 400 2956 400 3219 
Q 400 3675 750 4004 
Q 1100 4334 1641 4334 
Q 1978 4334 2356 4169 
Q 2531 4091 2603 4091 
Q 2684 4091 2736 4139 
Q 2788 4188 2819 4334 
L 2934 4334 
z
" transform="scale(0.015625)"/>
        <path id="TimesNewRomanPSMT-44" d="M 109 0 
L 109 116 
L 269 116 
Q 538 116 650 288 
Q 719 391 719 750 
L 719 3488 
Q 719 3884 631 3984 
Q 509 4122 269 4122 
L 109 4122 
L 109 4238 
L 1834 4238 
Q 2784 4238 3279 4022 
Q 3775 3806 4076 3303 
Q 4378 2800 4378 2141 
Q 4378 1256 3841 663 
Q 3238 0 2003 0 
L 109 0 
z
M 1319 306 
Q 1716 219 1984 219 
Q 2709 219 3187 728 
Q 3666 1238 3666 2109 
Q 3666 2988 3187 3494 
Q 2709 4000 1959 4000 
Q 1678 4000 1319 3909 
L 1319 306 
z
" transform="scale(0.015625)"/>
       </defs>
       <use xlink:href="#TimesNewRomanPSMT-38"/>
       <use xlink:href="#TimesNewRomanPSMT-42" x="50"/>
       <use xlink:href="#TimesNewRomanPSMT-20" x="116.699219"/>
       <use xlink:href="#TimesNewRomanPSMT-50" x="141.699219"/>
       <use xlink:href="#TimesNewRomanPSMT-50" x="197.314453"/>
       <use xlink:href="#TimesNewRomanPSMT-32" x="252.929688"/>
       <use xlink:href="#TimesNewRomanPSMT-2b" x="302.929688"/>
       <use xlink:href="#TimesNewRomanPSMT-46" x="359.326172"/>
       <use xlink:href="#TimesNewRomanPSMT-53" x="414.941406"/>
       <use xlink:href="#TimesNewRomanPSMT-44" x="470.556641"/>
       <use xlink:href="#TimesNewRomanPSMT-50" x="542.773438"/>
      </g>
     </g>
    </g>
    <g id="xtick_2">
     <g id="line2d_2">
      <g>
       <use xlink:href="#m5815069ebf" x="285.131074" y="226.716381" style="stroke: #000000; stroke-width: 0.8"/>
      </g>
     </g>
     <g id="text_2">
      <!-- 8B PP4+FSDP -->
      <g transform="translate(244.937757 265.723158) rotate(-35) scale(0.08 -0.08)">
       <defs>
        <path id="TimesNewRomanPSMT-34" d="M 2978 1563 
L 2978 1119 
L 2409 1119 
L 2409 0 
L 1894 0 
L 1894 1119 
L 100 1119 
L 100 1519 
L 2066 4325 
L 2409 4325 
L 2409 1563 
L 2978 1563 
z
M 1894 1563 
L 1894 3666 
L 406 1563 
L 1894 1563 
z
" transform="scale(0.015625)"/>
       </defs>
       <use xlink:href="#TimesNewRomanPSMT-38"/>
       <use xlink:href="#TimesNewRomanPSMT-42" x="50"/>
       <use xlink:href="#TimesNewRomanPSMT-20" x="116.699219"/>
       <use xlink:href="#TimesNewRomanPSMT-50" x="141.699219"/>
       <use xlink:href="#TimesNewRomanPSMT-50" x="197.314453"/>
       <use xlink:href="#TimesNewRomanPSMT-34" x="252.929688"/>
       <use xlink:href="#TimesNewRomanPSMT-2b" x="302.929688"/>
       <use xlink:href="#TimesNewRomanPSMT-46" x="359.326172"/>
       <use xlink:href="#TimesNewRomanPSMT-53" x="414.941406"/>
       <use xlink:href="#TimesNewRomanPSMT-44" x="470.556641"/>
       <use xlink:href="#TimesNewRomanPSMT-50" x="542.773438"/>
      </g>
     </g>
    </g>
   </g>
   <g id="matplotlib.axis_2">
    <g id="ytick_1">
     <g id="line2d_3">
      <defs>
       <path id="m5c8912c4a0" d="M 0 0 
L -3.5 0 
" style="stroke: #000000; stroke-width: 0.8"/>
      </defs>
      <g>
       <use xlink:href="#m5c8912c4a0" x="46.546364" y="226.716381" style="stroke: #000000; stroke-width: 0.8"/>
      </g>
     </g>
     <g id="text_3">
      <!-- 0 -->
      <g transform="translate(35.546364 229.493881) scale(0.08 -0.08)">
       <defs>
        <path id="TimesNewRomanPSMT-30" d="M 231 2094 
Q 231 2819 450 3342 
Q 669 3866 1031 4122 
Q 1313 4325 1613 4325 
Q 2100 4325 2488 3828 
Q 2972 3213 2972 2159 
Q 2972 1422 2759 906 
Q 2547 391 2217 158 
Q 1888 -75 1581 -75 
Q 975 -75 572 641 
Q 231 1244 231 2094 
z
M 844 2016 
Q 844 1141 1059 588 
Q 1238 122 1591 122 
Q 1759 122 1940 273 
Q 2122 425 2216 781 
Q 2359 1319 2359 2297 
Q 2359 3022 2209 3506 
Q 2097 3866 1919 4016 
Q 1791 4119 1609 4119 
Q 1397 4119 1231 3928 
Q 1006 3669 925 3112 
Q 844 2556 844 2016 
z
" transform="scale(0.015625)"/>
       </defs>
       <use xlink:href="#TimesNewRomanPSMT-30"/>
      </g>
     </g>
    </g>
    <g id="ytick_2">
     <g id="line2d_4">
      <g>
       <use xlink:href="#m5c8912c4a0" x="46.546364" y="199.145385" style="stroke: #000000; stroke-width: 0.8"/>
      </g>
     </g>
     <g id="text_4">
      <!-- 1000 -->
      <g transform="translate(23.546364 201.922885) scale(0.08 -0.08)">
       <defs>
        <path id="TimesNewRomanPSMT-31" d="M 750 3822 
L 1781 4325 
L 1884 4325 
L 1884 747 
Q 1884 391 1914 303 
Q 1944 216 2037 169 
Q 2131 122 2419 116 
L 2419 0 
L 825 0 
L 825 116 
Q 1125 122 1212 167 
Q 1300 213 1334 289 
Q 1369 366 1369 747 
L 1369 3034 
Q 1369 3497 1338 3628 
Q 1316 3728 1258 3775 
Q 1200 3822 1119 3822 
Q 1003 3822 797 3725 
L 750 3822 
z
" transform="scale(0.015625)"/>
       </defs>
       <use xlink:href="#TimesNewRomanPSMT-31"/>
       <use xlink:href="#TimesNewRomanPSMT-30" x="50"/>
       <use xlink:href="#TimesNewRomanPSMT-30" x="100"/>
       <use xlink:href="#TimesNewRomanPSMT-30" x="150"/>
      </g>
     </g>
    </g>
    <g id="ytick_3">
     <g id="line2d_5">
      <g>
       <use xlink:href="#m5c8912c4a0" x="46.546364" y="171.574389" style="stroke: #000000; stroke-width: 0.8"/>
      </g>
     </g>
     <g id="text_5">
      <!-- 2000 -->
      <g transform="translate(23.546364 174.351889) scale(0.08 -0.08)">
       <use xlink:href="#TimesNewRomanPSMT-32"/>
       <use xlink:href="#TimesNewRomanPSMT-30" x="50"/>
       <use xlink:href="#TimesNewRomanPSMT-30" x="100"/>
       <use xlink:href="#TimesNewRomanPSMT-30" x="150"/>
      </g>
     </g>
    </g>
    <g id="ytick_4">
     <g id="line2d_6">
      <g>
       <use xlink:href="#m5c8912c4a0" x="46.546364" y="144.003393" style="stroke: #000000; stroke-width: 0.8"/>
      </g>
     </g>
     <g id="text_6">
      <!-- 3000 -->
      <g transform="translate(23.546364 146.780893) scale(0.08 -0.08)">
       <defs>
        <path id="TimesNewRomanPSMT-33" d="M 325 3431 
Q 506 3859 782 4092 
Q 1059 4325 1472 4325 
Q 1981 4325 2253 3994 
Q 2459 3747 2459 3466 
Q 2459 3003 1878 2509 
Q 2269 2356 2469 2072 
Q 2669 1788 2669 1403 
Q 2669 853 2319 450 
Q 1863 -75 997 -75 
Q 569 -75 414 31 
Q 259 138 259 259 
Q 259 350 332 419 
Q 406 488 509 488 
Q 588 488 669 463 
Q 722 447 909 348 
Q 1097 250 1169 231 
Q 1284 197 1416 197 
Q 1734 197 1970 444 
Q 2206 691 2206 1028 
Q 2206 1275 2097 1509 
Q 2016 1684 1919 1775 
Q 1784 1900 1550 2001 
Q 1316 2103 1072 2103 
L 972 2103 
L 972 2197 
Q 1219 2228 1467 2375 
Q 1716 2522 1828 2728 
Q 1941 2934 1941 3181 
Q 1941 3503 1739 3701 
Q 1538 3900 1238 3900 
Q 753 3900 428 3381 
L 325 3431 
z
" transform="scale(0.015625)"/>
       </defs>
       <use xlink:href="#TimesNewRomanPSMT-33"/>
       <use xlink:href="#TimesNewRomanPSMT-30" x="50"/>
       <use xlink:href="#TimesNewRomanPSMT-30" x="100"/>
       <use xlink:href="#TimesNewRomanPSMT-30" x="150"/>
      </g>
     </g>
    </g>
    <g id="ytick_5">
     <g id="line2d_7">
      <g>
       <use xlink:href="#m5c8912c4a0" x="46.546364" y="116.432397" style="stroke: #000000; stroke-width: 0.8"/>
      </g>
     </g>
     <g id="text_7">
      <!-- 4000 -->
      <g transform="translate(23.546364 119.209897) scale(0.08 -0.08)">
       <use xlink:href="#TimesNewRomanPSMT-34"/>
       <use xlink:href="#TimesNewRomanPSMT-30" x="50"/>
       <use xlink:href="#TimesNewRomanPSMT-30" x="100"/>
       <use xlink:href="#TimesNewRomanPSMT-30" x="150"/>
      </g>
     </g>
    </g>
    <g id="ytick_6">
     <g id="line2d_8">
      <g>
       <use xlink:href="#m5c8912c4a0" x="46.546364" y="88.861401" style="stroke: #000000; stroke-width: 0.8"/>
      </g>
     </g>
     <g id="text_8">
      <!-- 5000 -->
      <g transform="translate(23.546364 91.638901) scale(0.08 -0.08)">
       <defs>
        <path id="TimesNewRomanPSMT-35" d="M 2778 4238 
L 2534 3706 
L 1259 3706 
L 981 3138 
Q 1809 3016 2294 2522 
Q 2709 2097 2709 1522 
Q 2709 1188 2573 903 
Q 2438 619 2231 419 
Q 2025 219 1772 97 
Q 1413 -75 1034 -75 
Q 653 -75 479 54 
Q 306 184 306 341 
Q 306 428 378 495 
Q 450 563 559 563 
Q 641 563 702 538 
Q 763 513 909 409 
Q 1144 247 1384 247 
Q 1750 247 2026 523 
Q 2303 800 2303 1197 
Q 2303 1581 2056 1914 
Q 1809 2247 1375 2428 
Q 1034 2569 447 2591 
L 1259 4238 
L 2778 4238 
z
" transform="scale(0.015625)"/>
       </defs>
       <use xlink:href="#TimesNewRomanPSMT-35"/>
       <use xlink:href="#TimesNewRomanPSMT-30" x="50"/>
       <use xlink:href="#TimesNewRomanPSMT-30" x="100"/>
       <use xlink:href="#TimesNewRomanPSMT-30" x="150"/>
      </g>
     </g>
    </g>
    <g id="ytick_7">
     <g id="line2d_9">
      <g>
       <use xlink:href="#m5c8912c4a0" x="46.546364" y="61.290405" style="stroke: #000000; stroke-width: 0.8"/>
      </g>
     </g>
     <g id="text_9">
      <!-- 6000 -->
      <g transform="translate(23.546364 64.067905) scale(0.08 -0.08)">
       <defs>
        <path id="TimesNewRomanPSMT-36" d="M 2869 4325 
L 2869 4209 
Q 2456 4169 2195 4045 
Q 1934 3922 1679 3669 
Q 1425 3416 1258 3105 
Q 1091 2794 978 2366 
Q 1428 2675 1881 2675 
Q 2316 2675 2634 2325 
Q 2953 1975 2953 1425 
Q 2953 894 2631 456 
Q 2244 -75 1606 -75 
Q 1172 -75 869 213 
Q 275 772 275 1663 
Q 275 2231 503 2743 
Q 731 3256 1154 3653 
Q 1578 4050 1965 4187 
Q 2353 4325 2688 4325 
L 2869 4325 
z
M 925 2138 
Q 869 1716 869 1456 
Q 869 1156 980 804 
Q 1091 453 1309 247 
Q 1469 100 1697 100 
Q 1969 100 2183 356 
Q 2397 613 2397 1088 
Q 2397 1622 2184 2012 
Q 1972 2403 1581 2403 
Q 1463 2403 1327 2353 
Q 1191 2303 925 2138 
z
" transform="scale(0.015625)"/>
       </defs>
       <use xlink:href="#TimesNewRomanPSMT-36"/>
       <use xlink:href="#TimesNewRomanPSMT-30" x="50"/>
       <use xlink:href="#TimesNewRomanPSMT-30" x="100"/>
       <use xlink:href="#TimesNewRomanPSMT-30" x="150"/>
      </g>
     </g>
    </g>
    <g id="ytick_8">
     <g id="line2d_10">
      <g>
       <use xlink:href="#m5c8912c4a0" x="46.546364" y="33.719409" style="stroke: #000000; stroke-width: 0.8"/>
      </g>
     </g>
     <g id="text_10">
      <!-- 7000 -->
      <g transform="translate(23.546364 36.496909) scale(0.08 -0.08)">
       <defs>
        <path id="TimesNewRomanPSMT-37" d="M 644 4238 
L 2916 4238 
L 2916 4119 
L 1503 -88 
L 1153 -88 
L 2419 3728 
L 1253 3728 
Q 900 3728 750 3644 
Q 488 3500 328 3200 
L 238 3234 
L 644 4238 
z
" transform="scale(0.015625)"/>
       </defs>
       <use xlink:href="#TimesNewRomanPSMT-37"/>
       <use xlink:href="#TimesNewRomanPSMT-30" x="50"/>
       <use xlink:href="#TimesNewRomanPSMT-30" x="100"/>
       <use xlink:href="#TimesNewRomanPSMT-30" x="150"/>
      </g>
     </g>
    </g>
    <g id="text_11">
     <!-- Tokens/s -->
     <g transform="translate(17.621207 139.3306) rotate(-90) scale(0.09 -0.09)">
      <defs>
       <path id="TimesNewRomanPSMT-54" d="M 3703 4238 
L 3750 3244 
L 3631 3244 
Q 3597 3506 3538 3619 
Q 3441 3800 3280 3886 
Q 3119 3972 2856 3972 
L 2259 3972 
L 2259 734 
Q 2259 344 2344 247 
Q 2463 116 2709 116 
L 2856 116 
L 2856 0 
L 1059 0 
L 1059 116 
L 1209 116 
Q 1478 116 1591 278 
Q 1659 378 1659 734 
L 1659 3972 
L 1150 3972 
Q 853 3972 728 3928 
Q 566 3869 450 3700 
Q 334 3531 313 3244 
L 194 3244 
L 244 4238 
L 3703 4238 
z
" transform="scale(0.015625)"/>
       <path id="TimesNewRomanPSMT-6f" d="M 1600 2947 
Q 2250 2947 2644 2453 
Q 2978 2031 2978 1484 
Q 2978 1100 2793 706 
Q 2609 313 2286 112 
Q 1963 -88 1566 -88 
Q 919 -88 538 428 
Q 216 863 216 1403 
Q 216 1797 411 2186 
Q 606 2575 925 2761 
Q 1244 2947 1600 2947 
z
M 1503 2744 
Q 1338 2744 1170 2645 
Q 1003 2547 900 2300 
Q 797 2053 797 1666 
Q 797 1041 1045 587 
Q 1294 134 1700 134 
Q 2003 134 2200 384 
Q 2397 634 2397 1244 
Q 2397 2006 2069 2444 
Q 1847 2744 1503 2744 
z
" transform="scale(0.015625)"/>
       <path id="TimesNewRomanPSMT-6b" d="M 1047 4444 
L 1047 1594 
L 1775 2259 
Q 2006 2472 2044 2528 
Q 2069 2566 2069 2603 
Q 2069 2666 2017 2711 
Q 1966 2756 1847 2763 
L 1847 2863 
L 3091 2863 
L 3091 2763 
Q 2834 2756 2664 2684 
Q 2494 2613 2291 2428 
L 1556 1750 
L 2291 822 
Q 2597 438 2703 334 
Q 2853 188 2966 144 
Q 3044 113 3238 113 
L 3238 0 
L 1847 0 
L 1847 113 
Q 1966 116 2008 148 
Q 2050 181 2050 241 
Q 2050 313 1925 472 
L 1047 1594 
L 1047 644 
Q 1047 366 1086 278 
Q 1125 191 1197 153 
Q 1269 116 1509 113 
L 1509 0 
L 53 0 
L 53 113 
Q 272 113 381 166 
Q 447 200 481 272 
Q 528 375 528 628 
L 528 3234 
Q 528 3731 506 3842 
Q 484 3953 434 3995 
Q 384 4038 303 4038 
Q 238 4038 106 3984 
L 53 4094 
L 903 4444 
L 1047 4444 
z
" transform="scale(0.015625)"/>
       <path id="TimesNewRomanPSMT-65" d="M 681 1784 
Q 678 1147 991 784 
Q 1303 422 1725 422 
Q 2006 422 2214 576 
Q 2422 731 2563 1106 
L 2659 1044 
Q 2594 616 2278 264 
Q 1963 -88 1488 -88 
Q 972 -88 605 314 
Q 238 716 238 1394 
Q 238 2128 614 2539 
Q 991 2950 1559 2950 
Q 2041 2950 2350 2633 
Q 2659 2316 2659 1784 
L 681 1784 
z
M 681 1966 
L 2006 1966 
Q 1991 2241 1941 2353 
Q 1863 2528 1708 2628 
Q 1553 2728 1384 2728 
Q 1125 2728 920 2526 
Q 716 2325 681 1966 
z
" transform="scale(0.015625)"/>
       <path id="TimesNewRomanPSMT-6e" d="M 1034 2341 
Q 1538 2947 1994 2947 
Q 2228 2947 2397 2830 
Q 2566 2713 2666 2444 
Q 2734 2256 2734 1869 
L 2734 647 
Q 2734 375 2778 278 
Q 2813 200 2889 156 
Q 2966 113 3172 113 
L 3172 0 
L 1756 0 
L 1756 113 
L 1816 113 
Q 2016 113 2095 173 
Q 2175 234 2206 353 
Q 2219 400 2219 647 
L 2219 1819 
Q 2219 2209 2117 2386 
Q 2016 2563 1775 2563 
Q 1403 2563 1034 2156 
L 1034 647 
Q 1034 356 1069 288 
Q 1113 197 1189 155 
Q 1266 113 1500 113 
L 1500 0 
L 84 0 
L 84 113 
L 147 113 
Q 366 113 442 223 
Q 519 334 519 647 
L 519 1709 
Q 519 2225 495 2337 
Q 472 2450 423 2490 
Q 375 2531 294 2531 
Q 206 2531 84 2484 
L 38 2597 
L 900 2947 
L 1034 2947 
L 1034 2341 
z
" transform="scale(0.015625)"/>
       <path id="TimesNewRomanPSMT-73" d="M 2050 2947 
L 2050 1972 
L 1947 1972 
Q 1828 2431 1642 2597 
Q 1456 2763 1169 2763 
Q 950 2763 815 2647 
Q 681 2531 681 2391 
Q 681 2216 781 2091 
Q 878 1963 1175 1819 
L 1631 1597 
Q 2266 1288 2266 781 
Q 2266 391 1970 151 
Q 1675 -88 1309 -88 
Q 1047 -88 709 6 
Q 606 38 541 38 
Q 469 38 428 -44 
L 325 -44 
L 325 978 
L 428 978 
Q 516 541 762 319 
Q 1009 97 1316 97 
Q 1531 97 1667 223 
Q 1803 350 1803 528 
Q 1803 744 1651 891 
Q 1500 1038 1047 1263 
Q 594 1488 453 1669 
Q 313 1847 313 2119 
Q 313 2472 555 2709 
Q 797 2947 1181 2947 
Q 1350 2947 1591 2875 
Q 1750 2828 1803 2828 
Q 1853 2828 1881 2850 
Q 1909 2872 1947 2947 
L 2050 2947 
z
" transform="scale(0.015625)"/>
       <path id="TimesNewRomanPSMT-2f" d="M 1794 4444 
L 259 -88 
L 9 -88 
L 1544 4444 
L 1794 4444 
z
" transform="scale(0.015625)"/>
      </defs>
      <use xlink:href="#TimesNewRomanPSMT-54"/>
      <use xlink:href="#TimesNewRomanPSMT-6f" x="54.083984"/>
      <use xlink:href="#TimesNewRomanPSMT-6b" x="104.083984"/>
      <use xlink:href="#TimesNewRomanPSMT-65" x="154.083984"/>
      <use xlink:href="#TimesNewRomanPSMT-6e" x="198.46875"/>
      <use xlink:href="#TimesNewRomanPSMT-73" x="248.46875"/>
      <use xlink:href="#TimesNewRomanPSMT-2f" x="287.384766"/>
      <use xlink:href="#TimesNewRomanPSMT-73" x="315.167969"/>
     </g>
    </g>
   </g>
   <g id="LineCollection_1">
    <path clip-path="url(#p877a986934)" style="fill: none; stroke: #000000; stroke-width: 0.9"/>
    <path clip-path="url(#p877a986934)" style="fill: none; stroke: #000000; stroke-width: 0.9"/>
    <path clip-path="url(#p877a986934)" style="fill: none; stroke: #000000; stroke-width: 0.9"/>
    <path d="M 125.007107 30.593025 
L 125.007107 29.916381 
" clip-path="url(#p877a986934)" style="fill: none; stroke: #000000; stroke-width: 0.9"/>
    <path d="M 285.131074 67.394977 
L 285.131074 66.969252 
" clip-path="url(#p877a986934)" style="fill: none; stroke: #000000; stroke-width: 0.9"/>
    <path clip-path="url(#p877a986934)" style="fill: none; stroke: #000000; stroke-width: 0.9"/>
    <path clip-path="url(#p877a986934)" style="fill: none; stroke: #000000; stroke-width: 0.9"/>
   </g>
   <g id="line2d_11">
    <defs>
     <path id="m3afaf34a8c" d="M 2 0 
L -2 -0 
" style="stroke: #000000"/>
    </defs>
    <g clip-path="url(#p877a986934)">
     <use xlink:href="#m3afaf34a8c" x="125.007107" y="30.593025" style="stroke: #000000"/>
     <use xlink:href="#m3afaf34a8c" x="285.131074" y="67.394977" style="stroke: #000000"/>
    </g>
   </g>
   <g id="line2d_12">
    <g clip-path="url(#p877a986934)">
     <use xlink:href="#m3afaf34a8c" x="125.007107" y="29.916381" style="stroke: #000000"/>
     <use xlink:href="#m3afaf34a8c" x="285.131074" y="66.969252" style="stroke: #000000"/>
    </g>
   </g>
   <g id="patch_10">
    <path d="M 46.546364 226.716381 
L 46.546364 20.076381 
" style="fill: none; stroke: #000000; stroke-width: 0.8; stroke-linejoin: miter; stroke-linecap: square"/>
   </g>
   <g id="patch_11">
    <path d="M 46.546364 226.716381 
L 363.591818 226.716381 
" style="fill: none; stroke: #000000; stroke-width: 0.8; stroke-linejoin: miter; stroke-linecap: square"/>
   </g>
   <g id="text_12">
    <!-- (a) -->
    <g transform="translate(2.16 9.457813) scale(0.11 -0.11)">
     <defs>
      <path id="TimesNewRomanPS-BoldMT-28" d="M 2056 4334 
L 2056 4191 
Q 1731 3978 1578 3775 
Q 1366 3494 1247 3053 
Q 1097 2506 1097 1525 
Q 1097 600 1233 87 
Q 1369 -425 1603 -741 
Q 1766 -959 2056 -1125 
L 2056 -1281 
Q 1303 -1028 779 -248 
Q 256 531 256 1544 
Q 256 2544 778 3314 
Q 1300 4084 2056 4334 
z
" transform="scale(0.015625)"/>
      <path id="TimesNewRomanPS-BoldMT-61" d="M 1828 431 
Q 1294 -41 869 -41 
Q 619 -41 453 123 
Q 288 288 288 534 
Q 288 869 575 1136 
Q 863 1403 1828 1847 
L 1828 2141 
Q 1828 2472 1792 2558 
Q 1756 2644 1656 2708 
Q 1556 2772 1431 2772 
Q 1228 2772 1097 2681 
Q 1016 2625 1016 2550 
Q 1016 2484 1103 2388 
Q 1222 2253 1222 2128 
Q 1222 1975 1108 1867 
Q 994 1759 809 1759 
Q 613 1759 480 1878 
Q 347 1997 347 2156 
Q 347 2381 525 2586 
Q 703 2791 1022 2900 
Q 1341 3009 1684 3009 
Q 2100 3009 2342 2832 
Q 2584 2656 2656 2450 
Q 2700 2319 2700 1847 
L 2700 713 
Q 2700 513 2715 461 
Q 2731 409 2762 384 
Q 2794 359 2834 359 
Q 2916 359 3000 475 
L 3094 400 
Q 2938 169 2770 64 
Q 2603 -41 2391 -41 
Q 2141 -41 2000 76 
Q 1859 194 1828 431 
z
M 1828 659 
L 1828 1638 
Q 1450 1416 1266 1163 
Q 1144 994 1144 822 
Q 1144 678 1247 569 
Q 1325 484 1466 484 
Q 1622 484 1828 659 
z
" transform="scale(0.015625)"/>
      <path id="TimesNewRomanPS-BoldMT-29" d="M 78 -1281 
L 78 -1138 
Q 403 -922 556 -719 
Q 766 -438 888 0 
Q 1038 550 1038 1531 
Q 1038 2456 902 2967 
Q 766 3478 531 3794 
Q 369 4013 78 4178 
L 78 4334 
Q 831 4081 1354 3301 
Q 1878 2522 1878 1509 
Q 1878 513 1354 -257 
Q 831 -1028 78 -1281 
z
" transform="scale(0.015625)"/>
     </defs>
     <use xlink:href="#TimesNewRomanPS-BoldMT-28"/>
     <use xlink:href="#TimesNewRomanPS-BoldMT-61" x="33.300781"/>
     <use xlink:href="#TimesNewRomanPS-BoldMT-29" x="83.300781"/>
    </g>
   </g>
  </g>
  <g id="axes_2">
   <g id="patch_12">
    <path d="M 427.000909 226.716381 
L 744.046364 226.716381 
L 744.046364 20.076381 
L 427.000909 20.076381 
z
" style="fill: #ffffff"/>
   </g>
   <g id="patch_13">
    <path d="M 0 0 
z
" clip-path="url(#p54f096b5b8)" style="fill: #0072b2"/>
   </g>
   <g id="patch_14">
    <path d="M 0 0 
z
" clip-path="url(#p54f096b5b8)" style="fill: #0072b2"/>
   </g>
   <g id="patch_15">
    <path d="M 0 0 
z
" clip-path="url(#p54f096b5b8)" style="fill: #d55e00"/>
   </g>
   <g id="patch_16">
    <path d="M 441.412066 226.716381 
L 569.51124 226.716381 
L 569.51124 30.256329 
L 441.412066 30.256329 
z
" clip-path="url(#p54f096b5b8)" style="fill: #009e73"/>
   </g>
   <g id="patch_17">
    <path d="M 601.536033 226.716381 
L 729.635207 226.716381 
L 729.635207 105.750224 
L 601.536033 105.750224 
z
" clip-path="url(#p54f096b5b8)" style="fill: #009e73"/>
   </g>
   <g id="patch_18">
    <path d="M 0 0 
z
" clip-path="url(#p54f096b5b8)" style="fill: #009e73"/>
   </g>
   <g id="patch_19">
    <path d="M 0 0 
z
" clip-path="url(#p54f096b5b8)" style="fill: #009e73"/>
   </g>
   <g id="matplotlib.axis_3">
    <g id="xtick_3">
     <g id="line2d_13">
      <g>
       <use xlink:href="#m5815069ebf" x="505.461653" y="226.716381" style="stroke: #000000; stroke-width: 0.8"/>
      </g>
     </g>
     <g id="text_13">
      <!-- 8B PP2+FSDP -->
      <g transform="translate(465.268336 265.723158) rotate(-35) scale(0.08 -0.08)">
       <use xlink:href="#TimesNewRomanPSMT-38"/>
       <use xlink:href="#TimesNewRomanPSMT-42" x="50"/>
       <use xlink:href="#TimesNewRomanPSMT-20" x="116.699219"/>
       <use xlink:href="#TimesNewRomanPSMT-50" x="141.699219"/>
       <use xlink:href="#TimesNewRomanPSMT-50" x="197.314453"/>
       <use xlink:href="#TimesNewRomanPSMT-32" x="252.929688"/>
       <use xlink:href="#TimesNewRomanPSMT-2b" x="302.929688"/>
       <use xlink:href="#TimesNewRomanPSMT-46" x="359.326172"/>
       <use xlink:href="#TimesNewRomanPSMT-53" x="414.941406"/>
       <use xlink:href="#TimesNewRomanPSMT-44" x="470.556641"/>
       <use xlink:href="#TimesNewRomanPSMT-50" x="542.773438"/>
      </g>
     </g>
    </g>
    <g id="xtick_4">
     <g id="line2d_14">
      <g>
       <use xlink:href="#m5815069ebf" x="665.58562" y="226.716381" style="stroke: #000000; stroke-width: 0.8"/>
      </g>
     </g>
     <g id="text_14">
      <!-- 8B PP4+FSDP -->
      <g transform="translate(625.392303 265.723158) rotate(-35) scale(0.08 -0.08)">
       <use xlink:href="#TimesNewRomanPSMT-38"/>
       <use xlink:href="#TimesNewRomanPSMT-42" x="50"/>
       <use xlink:href="#TimesNewRomanPSMT-20" x="116.699219"/>
       <use xlink:href="#TimesNewRomanPSMT-50" x="141.699219"/>
       <use xlink:href="#TimesNewRomanPSMT-50" x="197.314453"/>
       <use xlink:href="#TimesNewRomanPSMT-34" x="252.929688"/>
       <use xlink:href="#TimesNewRomanPSMT-2b" x="302.929688"/>
       <use xlink:href="#TimesNewRomanPSMT-46" x="359.326172"/>
       <use xlink:href="#TimesNewRomanPSMT-53" x="414.941406"/>
       <use xlink:href="#TimesNewRomanPSMT-44" x="470.556641"/>
       <use xlink:href="#TimesNewRomanPSMT-50" x="542.773438"/>
      </g>
     </g>
    </g>
   </g>
   <g id="matplotlib.axis_4">
    <g id="ytick_9">
     <g id="line2d_15">
      <g>
       <use xlink:href="#m5c8912c4a0" x="427.000909" y="226.716381" style="stroke: #000000; stroke-width: 0.8"/>
      </g>
     </g>
     <g id="text_15">
      <!-- 0 -->
      <g transform="translate(416.000909 229.493881) scale(0.08 -0.08)">
       <use xlink:href="#TimesNewRomanPSMT-30"/>
      </g>
     </g>
    </g>
    <g id="ytick_10">
     <g id="line2d_16">
      <g>
       <use xlink:href="#m5c8912c4a0" x="427.000909" y="183.995152" style="stroke: #000000; stroke-width: 0.8"/>
      </g>
     </g>
     <g id="text_16">
      <!-- 500 -->
      <g transform="translate(408.000909 186.772652) scale(0.08 -0.08)">
       <use xlink:href="#TimesNewRomanPSMT-35"/>
       <use xlink:href="#TimesNewRomanPSMT-30" x="50"/>
       <use xlink:href="#TimesNewRomanPSMT-30" x="100"/>
      </g>
     </g>
    </g>
    <g id="ytick_11">
     <g id="line2d_17">
      <g>
       <use xlink:href="#m5c8912c4a0" x="427.000909" y="141.273923" style="stroke: #000000; stroke-width: 0.8"/>
      </g>
     </g>
     <g id="text_17">
      <!-- 1000 -->
      <g transform="translate(404.000909 144.051423) scale(0.08 -0.08)">
       <use xlink:href="#TimesNewRomanPSMT-31"/>
       <use xlink:href="#TimesNewRomanPSMT-30" x="50"/>
       <use xlink:href="#TimesNewRomanPSMT-30" x="100"/>
       <use xlink:href="#TimesNewRomanPSMT-30" x="150"/>
      </g>
     </g>
    </g>
    <g id="ytick_12">
     <g id="line2d_18">
      <g>
       <use xlink:href="#m5c8912c4a0" x="427.000909" y="98.552694" style="stroke: #000000; stroke-width: 0.8"/>
      </g>
     </g>
     <g id="text_18">
      <!-- 1500 -->
      <g transform="translate(404.000909 101.330194) scale(0.08 -0.08)">
       <use xlink:href="#TimesNewRomanPSMT-31"/>
       <use xlink:href="#TimesNewRomanPSMT-35" x="50"/>
       <use xlink:href="#TimesNewRomanPSMT-30" x="100"/>
       <use xlink:href="#TimesNewRomanPSMT-30" x="150"/>
      </g>
     </g>
    </g>
    <g id="ytick_13">
     <g id="line2d_19">
      <g>
       <use xlink:href="#m5c8912c4a0" x="427.000909" y="55.831464" style="stroke: #000000; stroke-width: 0.8"/>
      </g>
     </g>
     <g id="text_19">
      <!-- 2000 -->
      <g transform="translate(404.000909 58.608964) scale(0.08 -0.08)">
       <use xlink:href="#TimesNewRomanPSMT-32"/>
       <use xlink:href="#TimesNewRomanPSMT-30" x="50"/>
       <use xlink:href="#TimesNewRomanPSMT-30" x="100"/>
       <use xlink:href="#TimesNewRomanPSMT-30" x="150"/>
      </g>
     </g>
    </g>
    <g id="text_20">
     <!-- Step time (ms) -->
     <g transform="translate(398.075753 149.892944) rotate(-90) scale(0.09 -0.09)">
      <defs>
       <path id="TimesNewRomanPSMT-74" d="M 1031 3803 
L 1031 2863 
L 1700 2863 
L 1700 2644 
L 1031 2644 
L 1031 788 
Q 1031 509 1111 412 
Q 1191 316 1316 316 
Q 1419 316 1516 380 
Q 1613 444 1666 569 
L 1788 569 
Q 1678 263 1478 108 
Q 1278 -47 1066 -47 
Q 922 -47 784 33 
Q 647 113 581 261 
Q 516 409 516 719 
L 516 2644 
L 63 2644 
L 63 2747 
Q 234 2816 414 2980 
Q 594 3144 734 3369 
Q 806 3488 934 3803 
L 1031 3803 
z
" transform="scale(0.015625)"/>
       <path id="TimesNewRomanPSMT-70" d="M -6 2578 
L 875 2934 
L 994 2934 
L 994 2266 
Q 1216 2644 1439 2795 
Q 1663 2947 1909 2947 
Q 2341 2947 2628 2609 
Q 2981 2197 2981 1534 
Q 2981 794 2556 309 
Q 2206 -88 1675 -88 
Q 1444 -88 1275 -22 
Q 1150 25 994 166 
L 994 -706 
Q 994 -1000 1030 -1079 
Q 1066 -1159 1155 -1206 
Q 1244 -1253 1478 -1253 
L 1478 -1369 
L -22 -1369 
L -22 -1253 
L 56 -1253 
Q 228 -1256 350 -1188 
Q 409 -1153 442 -1076 
Q 475 -1000 475 -688 
L 475 2019 
Q 475 2297 450 2372 
Q 425 2447 370 2484 
Q 316 2522 222 2522 
Q 147 2522 31 2478 
L -6 2578 
z
M 994 2081 
L 994 1013 
Q 994 666 1022 556 
Q 1066 375 1236 237 
Q 1406 100 1666 100 
Q 1978 100 2172 344 
Q 2425 663 2425 1241 
Q 2425 1897 2138 2250 
Q 1938 2494 1663 2494 
Q 1513 2494 1366 2419 
Q 1253 2363 994 2081 
z
" transform="scale(0.015625)"/>
       <path id="TimesNewRomanPSMT-69" d="M 928 4444 
Q 1059 4444 1151 4351 
Q 1244 4259 1244 4128 
Q 1244 3997 1151 3903 
Q 1059 3809 928 3809 
Q 797 3809 703 3903 
Q 609 3997 609 4128 
Q 609 4259 701 4351 
Q 794 4444 928 4444 
z
M 1188 2947 
L 1188 647 
Q 1188 378 1227 289 
Q 1266 200 1342 156 
Q 1419 113 1622 113 
L 1622 0 
L 231 0 
L 231 113 
Q 441 113 512 153 
Q 584 194 626 287 
Q 669 381 669 647 
L 669 1750 
Q 669 2216 641 2353 
Q 619 2453 572 2492 
Q 525 2531 444 2531 
Q 356 2531 231 2484 
L 188 2597 
L 1050 2947 
L 1188 2947 
z
" transform="scale(0.015625)"/>
       <path id="TimesNewRomanPSMT-6d" d="M 1050 2338 
Q 1363 2650 1419 2697 
Q 1559 2816 1721 2881 
Q 1884 2947 2044 2947 
Q 2313 2947 2506 2790 
Q 2700 2634 2766 2338 
Q 3088 2713 3309 2830 
Q 3531 2947 3766 2947 
Q 3994 2947 4170 2830 
Q 4347 2713 4450 2447 
Q 4519 2266 4519 1878 
L 4519 647 
Q 4519 378 4559 278 
Q 4591 209 4675 161 
Q 4759 113 4950 113 
L 4950 0 
L 3538 0 
L 3538 113 
L 3597 113 
Q 3781 113 3884 184 
Q 3956 234 3988 344 
Q 4000 397 4000 647 
L 4000 1878 
Q 4000 2228 3916 2372 
Q 3794 2572 3525 2572 
Q 3359 2572 3192 2489 
Q 3025 2406 2788 2181 
L 2781 2147 
L 2788 2013 
L 2788 647 
Q 2788 353 2820 281 
Q 2853 209 2943 161 
Q 3034 113 3253 113 
L 3253 0 
L 1806 0 
L 1806 113 
Q 2044 113 2133 169 
Q 2222 225 2256 338 
Q 2272 391 2272 647 
L 2272 1878 
Q 2272 2228 2169 2381 
Q 2031 2581 1784 2581 
Q 1616 2581 1450 2491 
Q 1191 2353 1050 2181 
L 1050 647 
Q 1050 366 1089 281 
Q 1128 197 1204 155 
Q 1281 113 1516 113 
L 1516 0 
L 100 0 
L 100 113 
Q 297 113 375 155 
Q 453 197 493 289 
Q 534 381 534 647 
L 534 1741 
Q 534 2213 506 2350 
Q 484 2453 437 2492 
Q 391 2531 309 2531 
Q 222 2531 100 2484 
L 53 2597 
L 916 2947 
L 1050 2947 
L 1050 2338 
z
" transform="scale(0.015625)"/>
       <path id="TimesNewRomanPSMT-28" d="M 1988 -1253 
L 1988 -1369 
Q 1516 -1131 1200 -813 
Q 750 -359 506 256 
Q 263 872 263 1534 
Q 263 2503 741 3301 
Q 1219 4100 1988 4444 
L 1988 4313 
Q 1603 4100 1356 3731 
Q 1109 3363 987 2797 
Q 866 2231 866 1616 
Q 866 947 969 400 
Q 1050 -31 1165 -292 
Q 1281 -553 1476 -793 
Q 1672 -1034 1988 -1253 
z
" transform="scale(0.015625)"/>
       <path id="TimesNewRomanPSMT-29" d="M 144 4313 
L 144 4444 
Q 619 4209 934 3891 
Q 1381 3434 1625 2820 
Q 1869 2206 1869 1541 
Q 1869 572 1392 -226 
Q 916 -1025 144 -1369 
L 144 -1253 
Q 528 -1038 776 -670 
Q 1025 -303 1145 264 
Q 1266 831 1266 1447 
Q 1266 2113 1163 2663 
Q 1084 3094 967 3353 
Q 850 3613 656 3853 
Q 463 4094 144 4313 
z
" transform="scale(0.015625)"/>
      </defs>
      <use xlink:href="#TimesNewRomanPSMT-53"/>
      <use xlink:href="#TimesNewRomanPSMT-74" x="55.615234"/>
      <use xlink:href="#TimesNewRomanPSMT-65" x="83.398438"/>
      <use xlink:href="#TimesNewRomanPSMT-70" x="127.783203"/>
      <use xlink:href="#TimesNewRomanPSMT-20" x="177.783203"/>
      <use xlink:href="#TimesNewRomanPSMT-74" x="202.783203"/>
      <use xlink:href="#TimesNewRomanPSMT-69" x="230.566406"/>
      <use xlink:href="#TimesNewRomanPSMT-6d" x="258.349609"/>
      <use xlink:href="#TimesNewRomanPSMT-65" x="336.132812"/>
      <use xlink:href="#TimesNewRomanPSMT-20" x="380.517578"/>
      <use xlink:href="#TimesNewRomanPSMT-28" x="405.517578"/>
      <use xlink:href="#TimesNewRomanPSMT-6d" x="438.818359"/>
      <use xlink:href="#TimesNewRomanPSMT-73" x="516.601562"/>
      <use xlink:href="#TimesNewRomanPSMT-29" x="555.517578"/>
     </g>
    </g>
   </g>
   <g id="LineCollection_2">
    <path clip-path="url(#p54f096b5b8)" style="fill: none; stroke: #000000; stroke-width: 0.9"/>
    <path clip-path="url(#p54f096b5b8)" style="fill: none; stroke: #000000; stroke-width: 0.9"/>
    <path clip-path="url(#p54f096b5b8)" style="fill: none; stroke: #000000; stroke-width: 0.9"/>
    <path d="M 505.461653 30.596277 
L 505.461653 29.916381 
" clip-path="url(#p54f096b5b8)" style="fill: none; stroke: #000000; stroke-width: 0.9"/>
    <path d="M 665.58562 105.911502 
L 665.58562 105.588945 
" clip-path="url(#p54f096b5b8)" style="fill: none; stroke: #000000; stroke-width: 0.9"/>
    <path clip-path="url(#p54f096b5b8)" style="fill: none; stroke: #000000; stroke-width: 0.9"/>
    <path clip-path="url(#p54f096b5b8)" style="fill: none; stroke: #000000; stroke-width: 0.9"/>
   </g>
   <g id="line2d_20">
    <g clip-path="url(#p54f096b5b8)">
     <use xlink:href="#m3afaf34a8c" x="505.461653" y="30.596277" style="stroke: #000000"/>
     <use xlink:href="#m3afaf34a8c" x="665.58562" y="105.911502" style="stroke: #000000"/>
    </g>
   </g>
   <g id="line2d_21">
    <g clip-path="url(#p54f096b5b8)">
     <use xlink:href="#m3afaf34a8c" x="505.461653" y="29.916381" style="stroke: #000000"/>
     <use xlink:href="#m3afaf34a8c" x="665.58562" y="105.588945" style="stroke: #000000"/>
    </g>
   </g>
   <g id="patch_20">
    <path d="M 427.000909 226.716381 
L 427.000909 20.076381 
" style="fill: none; stroke: #000000; stroke-width: 0.8; stroke-linejoin: miter; stroke-linecap: square"/>
   </g>
   <g id="patch_21">
    <path d="M 427.000909 226.716381 
L 744.046364 226.716381 
" style="fill: none; stroke: #000000; stroke-width: 0.8; stroke-linejoin: miter; stroke-linecap: square"/>
   </g>
   <g id="text_21">
    <!-- (b) -->
    <g transform="translate(382.614545 9.457813) scale(0.11 -0.11)">
     <defs>
      <path id="TimesNewRomanPS-BoldMT-62" d="M 1347 4238 
L 1347 2628 
Q 1716 3009 2153 3009 
Q 2453 3009 2718 2832 
Q 2984 2656 3134 2331 
Q 3284 2006 3284 1581 
Q 3284 1103 3093 712 
Q 2903 322 2584 117 
Q 2266 -88 1856 -88 
Q 1619 -88 1434 -12 
Q 1250 63 1072 231 
L 588 -84 
L 481 -84 
L 481 3631 
Q 481 3884 459 3944 
Q 428 4031 361 4073 
Q 294 4116 134 4122 
L 134 4238 
L 1347 4238 
z
M 1347 2350 
L 1347 1050 
Q 1347 653 1366 544 
Q 1397 359 1515 245 
Q 1634 131 1819 131 
Q 1978 131 2092 222 
Q 2206 313 2282 581 
Q 2359 850 2359 1550 
Q 2359 2222 2191 2472 
Q 2069 2653 1863 2653 
Q 1594 2653 1347 2350 
z
" transform="scale(0.015625)"/>
     </defs>
     <use xlink:href="#TimesNewRomanPS-BoldMT-28"/>
     <use xlink:href="#TimesNewRomanPS-BoldMT-62" x="33.300781"/>
     <use xlink:href="#TimesNewRomanPS-BoldMT-29" x="88.916016"/>
    </g>
   </g>
  </g>
  <g id="axes_3">
   <g id="patch_22">
    <path d="M 46.546364 474.684381 
L 363.591818 474.684381 
L 363.591818 268.044381 
L 46.546364 268.044381 
z
" style="fill: #ffffff"/>
   </g>
   <g id="patch_23">
    <path d="M 0 0 
z
" clip-path="url(#pba9e73feb8)" style="fill: #0072b2"/>
   </g>
   <g id="patch_24">
    <path d="M 0 0 
z
" clip-path="url(#pba9e73feb8)" style="fill: #0072b2"/>
   </g>
   <g id="patch_25">
    <path d="M 0 0 
z
" clip-path="url(#pba9e73feb8)" style="fill: #d55e00"/>
   </g>
   <g id="patch_26">
    <path d="M 60.957521 474.684381 
L 189.056694 474.684381 
L 189.056694 277.884381 
L 60.957521 277.884381 
z
" clip-path="url(#pba9e73feb8)" style="fill: #009e73"/>
   </g>
   <g id="patch_27">
    <path d="M 221.081488 474.684381 
L 349.180661 474.684381 
L 349.180661 298.548278 
L 221.081488 298.548278 
z
" clip-path="url(#pba9e73feb8)" style="fill: #009e73"/>
   </g>
   <g id="patch_28">
    <path d="M 0 0 
z
" clip-path="url(#pba9e73feb8)" style="fill: #009e73"/>
   </g>
   <g id="patch_29">
    <path d="M 0 0 
z
" clip-path="url(#pba9e73feb8)" style="fill: #009e73"/>
   </g>
   <g id="matplotlib.axis_5">
    <g id="xtick_5">
     <g id="line2d_22">
      <g>
       <use xlink:href="#m5815069ebf" x="125.007107" y="474.684381" style="stroke: #000000; stroke-width: 0.8"/>
      </g>
     </g>
     <g id="text_22">
      <!-- 8B PP2+FSDP -->
      <g transform="translate(84.81379 513.691158) rotate(-35) scale(0.08 -0.08)">
       <use xlink:href="#TimesNewRomanPSMT-38"/>
       <use xlink:href="#TimesNewRomanPSMT-42" x="50"/>
       <use xlink:href="#TimesNewRomanPSMT-20" x="116.699219"/>
       <use xlink:href="#TimesNewRomanPSMT-50" x="141.699219"/>
       <use xlink:href="#TimesNewRomanPSMT-50" x="197.314453"/>
       <use xlink:href="#TimesNewRomanPSMT-32" x="252.929688"/>
       <use xlink:href="#TimesNewRomanPSMT-2b" x="302.929688"/>
       <use xlink:href="#TimesNewRomanPSMT-46" x="359.326172"/>
       <use xlink:href="#TimesNewRomanPSMT-53" x="414.941406"/>
       <use xlink:href="#TimesNewRomanPSMT-44" x="470.556641"/>
       <use xlink:href="#TimesNewRomanPSMT-50" x="542.773438"/>
      </g>
     </g>
    </g>
    <g id="xtick_6">
     <g id="line2d_23">
      <g>
       <use xlink:href="#m5815069ebf" x="285.131074" y="474.684381" style="stroke: #000000; stroke-width: 0.8"/>
      </g>
     </g>
     <g id="text_23">
      <!-- 8B PP4+FSDP -->
      <g transform="translate(244.937757 513.691158) rotate(-35) scale(0.08 -0.08)">
       <use xlink:href="#TimesNewRomanPSMT-38"/>
       <use xlink:href="#TimesNewRomanPSMT-42" x="50"/>
       <use xlink:href="#TimesNewRomanPSMT-20" x="116.699219"/>
       <use xlink:href="#TimesNewRomanPSMT-50" x="141.699219"/>
       <use xlink:href="#TimesNewRomanPSMT-50" x="197.314453"/>
       <use xlink:href="#TimesNewRomanPSMT-34" x="252.929688"/>
       <use xlink:href="#TimesNewRomanPSMT-2b" x="302.929688"/>
       <use xlink:href="#TimesNewRomanPSMT-46" x="359.326172"/>
       <use xlink:href="#TimesNewRomanPSMT-53" x="414.941406"/>
       <use xlink:href="#TimesNewRomanPSMT-44" x="470.556641"/>
       <use xlink:href="#TimesNewRomanPSMT-50" x="542.773438"/>
      </g>
     </g>
    </g>
   </g>
   <g id="matplotlib.axis_6">
    <g id="ytick_14">
     <g id="line2d_24">
      <g>
       <use xlink:href="#m5c8912c4a0" x="46.546364" y="474.684381" style="stroke: #000000; stroke-width: 0.8"/>
      </g>
     </g>
     <g id="text_24">
      <!-- 0 -->
      <g transform="translate(35.546364 477.461881) scale(0.08 -0.08)">
       <use xlink:href="#TimesNewRomanPSMT-30"/>
      </g>
     </g>
    </g>
    <g id="ytick_15">
     <g id="line2d_25">
      <g>
       <use xlink:href="#m5c8912c4a0" x="46.546364" y="439.382696" style="stroke: #000000; stroke-width: 0.8"/>
      </g>
     </g>
     <g id="text_25">
      <!-- 5 -->
      <g transform="translate(35.546364 442.160196) scale(0.08 -0.08)">
       <use xlink:href="#TimesNewRomanPSMT-35"/>
      </g>
     </g>
    </g>
    <g id="ytick_16">
     <g id="line2d_26">
      <g>
       <use xlink:href="#m5c8912c4a0" x="46.546364" y="404.081011" style="stroke: #000000; stroke-width: 0.8"/>
      </g>
     </g>
     <g id="text_26">
      <!-- 10 -->
      <g transform="translate(31.546364 406.858511) scale(0.08 -0.08)">
       <use xlink:href="#TimesNewRomanPSMT-31"/>
       <use xlink:href="#TimesNewRomanPSMT-30" x="50"/>
      </g>
     </g>
    </g>
    <g id="ytick_17">
     <g id="line2d_27">
      <g>
       <use xlink:href="#m5c8912c4a0" x="46.546364" y="368.779326" style="stroke: #000000; stroke-width: 0.8"/>
      </g>
     </g>
     <g id="text_27">
      <!-- 15 -->
      <g transform="translate(31.546364 371.556826) scale(0.08 -0.08)">
       <use xlink:href="#TimesNewRomanPSMT-31"/>
       <use xlink:href="#TimesNewRomanPSMT-35" x="50"/>
      </g>
     </g>
    </g>
    <g id="ytick_18">
     <g id="line2d_28">
      <g>
       <use xlink:href="#m5c8912c4a0" x="46.546364" y="333.477641" style="stroke: #000000; stroke-width: 0.8"/>
      </g>
     </g>
     <g id="text_28">
      <!-- 20 -->
      <g transform="translate(31.546364 336.255141) scale(0.08 -0.08)">
       <use xlink:href="#TimesNewRomanPSMT-32"/>
       <use xlink:href="#TimesNewRomanPSMT-30" x="50"/>
      </g>
     </g>
    </g>
    <g id="ytick_19">
     <g id="line2d_29">
      <g>
       <use xlink:href="#m5c8912c4a0" x="46.546364" y="298.175955" style="stroke: #000000; stroke-width: 0.8"/>
      </g>
     </g>
     <g id="text_29">
      <!-- 25 -->
      <g transform="translate(31.546364 300.953455) scale(0.08 -0.08)">
       <use xlink:href="#TimesNewRomanPSMT-32"/>
       <use xlink:href="#TimesNewRomanPSMT-35" x="50"/>
      </g>
     </g>
    </g>
    <g id="text_30">
     <!-- Peak reserved memory (GiB) -->
     <g transform="translate(25.604332 424.222506) rotate(-90) scale(0.09 -0.09)">
      <defs>
       <path id="TimesNewRomanPSMT-61" d="M 1822 413 
Q 1381 72 1269 19 
Q 1100 -59 909 -59 
Q 613 -59 420 144 
Q 228 347 228 678 
Q 228 888 322 1041 
Q 450 1253 767 1440 
Q 1084 1628 1822 1897 
L 1822 2009 
Q 1822 2438 1686 2597 
Q 1550 2756 1291 2756 
Q 1094 2756 978 2650 
Q 859 2544 859 2406 
L 866 2225 
Q 866 2081 792 2003 
Q 719 1925 600 1925 
Q 484 1925 411 2006 
Q 338 2088 338 2228 
Q 338 2497 613 2722 
Q 888 2947 1384 2947 
Q 1766 2947 2009 2819 
Q 2194 2722 2281 2516 
Q 2338 2381 2338 1966 
L 2338 994 
Q 2338 584 2353 492 
Q 2369 400 2405 369 
Q 2441 338 2488 338 
Q 2538 338 2575 359 
Q 2641 400 2828 588 
L 2828 413 
Q 2478 -56 2159 -56 
Q 2006 -56 1915 50 
Q 1825 156 1822 413 
z
M 1822 616 
L 1822 1706 
Q 1350 1519 1213 1441 
Q 966 1303 859 1153 
Q 753 1003 753 825 
Q 753 600 887 451 
Q 1022 303 1197 303 
Q 1434 303 1822 616 
z
" transform="scale(0.015625)"/>
       <path id="TimesNewRomanPSMT-72" d="M 1038 2947 
L 1038 2303 
Q 1397 2947 1775 2947 
Q 1947 2947 2059 2842 
Q 2172 2738 2172 2600 
Q 2172 2478 2090 2393 
Q 2009 2309 1897 2309 
Q 1788 2309 1652 2417 
Q 1516 2525 1450 2525 
Q 1394 2525 1328 2463 
Q 1188 2334 1038 2041 
L 1038 669 
Q 1038 431 1097 309 
Q 1138 225 1241 169 
Q 1344 113 1538 113 
L 1538 0 
L 72 0 
L 72 113 
Q 291 113 397 181 
Q 475 231 506 341 
Q 522 394 522 644 
L 522 1753 
Q 522 2253 501 2348 
Q 481 2444 426 2487 
Q 372 2531 291 2531 
Q 194 2531 72 2484 
L 41 2597 
L 906 2947 
L 1038 2947 
z
" transform="scale(0.015625)"/>
       <path id="TimesNewRomanPSMT-76" d="M 53 2863 
L 1400 2863 
L 1400 2747 
L 1313 2747 
Q 1191 2747 1127 2687 
Q 1063 2628 1063 2528 
Q 1063 2419 1128 2269 
L 1794 688 
L 2463 2328 
Q 2534 2503 2534 2594 
Q 2534 2638 2509 2666 
Q 2475 2713 2422 2730 
Q 2369 2747 2206 2747 
L 2206 2863 
L 3141 2863 
L 3141 2747 
Q 2978 2734 2916 2681 
Q 2806 2588 2719 2369 
L 1703 -88 
L 1575 -88 
L 553 2328 
Q 484 2497 421 2570 
Q 359 2644 263 2694 
Q 209 2722 53 2747 
L 53 2863 
z
" transform="scale(0.015625)"/>
       <path id="TimesNewRomanPSMT-64" d="M 2222 322 
Q 2013 103 1813 7 
Q 1613 -88 1381 -88 
Q 913 -88 563 304 
Q 213 697 213 1313 
Q 213 1928 600 2439 
Q 988 2950 1597 2950 
Q 1975 2950 2222 2709 
L 2222 3238 
Q 2222 3728 2198 3840 
Q 2175 3953 2125 3993 
Q 2075 4034 2000 4034 
Q 1919 4034 1784 3984 
L 1744 4094 
L 2597 4444 
L 2738 4444 
L 2738 1134 
Q 2738 631 2761 520 
Q 2784 409 2836 365 
Q 2888 322 2956 322 
Q 3041 322 3181 375 
L 3216 266 
L 2366 -88 
L 2222 -88 
L 2222 322 
z
M 2222 541 
L 2222 2016 
Q 2203 2228 2109 2403 
Q 2016 2578 1861 2667 
Q 1706 2756 1559 2756 
Q 1284 2756 1069 2509 
Q 784 2184 784 1559 
Q 784 928 1059 592 
Q 1334 256 1672 256 
Q 1956 256 2222 541 
z
" transform="scale(0.015625)"/>
       <path id="TimesNewRomanPSMT-79" d="M 38 2863 
L 1372 2863 
L 1372 2747 
L 1306 2747 
Q 1166 2747 1095 2686 
Q 1025 2625 1025 2534 
Q 1025 2413 1128 2197 
L 1825 753 
L 2466 2334 
Q 2519 2463 2519 2588 
Q 2519 2644 2497 2672 
Q 2472 2706 2419 2726 
Q 2366 2747 2231 2747 
L 2231 2863 
L 3163 2863 
L 3163 2747 
Q 3047 2734 2984 2696 
Q 2922 2659 2847 2556 
Q 2819 2513 2741 2316 
L 1575 -541 
Q 1406 -956 1132 -1168 
Q 859 -1381 606 -1381 
Q 422 -1381 303 -1275 
Q 184 -1169 184 -1031 
Q 184 -900 270 -820 
Q 356 -741 506 -741 
Q 609 -741 788 -809 
Q 913 -856 944 -856 
Q 1038 -856 1148 -759 
Q 1259 -663 1372 -384 
L 1575 113 
L 547 2272 
Q 500 2369 397 2513 
Q 319 2622 269 2659 
Q 197 2709 38 2747 
L 38 2863 
z
" transform="scale(0.015625)"/>
       <path id="TimesNewRomanPSMT-47" d="M 3928 4334 
L 4038 2997 
L 3928 2997 
Q 3763 3497 3500 3750 
Q 3122 4116 2528 4116 
Q 1719 4116 1297 3475 
Q 944 2934 944 2188 
Q 944 1581 1178 1081 
Q 1413 581 1792 348 
Q 2172 116 2572 116 
Q 2806 116 3025 175 
Q 3244 234 3447 350 
L 3447 1575 
Q 3447 1894 3398 1992 
Q 3350 2091 3248 2142 
Q 3147 2194 2891 2194 
L 2891 2313 
L 4531 2313 
L 4531 2194 
L 4453 2194 
Q 4209 2194 4119 2031 
Q 4056 1916 4056 1575 
L 4056 278 
Q 3697 84 3347 -6 
Q 2997 -97 2569 -97 
Q 1341 -97 703 691 
Q 225 1281 225 2053 
Q 225 2613 494 3125 
Q 813 3734 1369 4063 
Q 1834 4334 2469 4334 
Q 2700 4334 2889 4296 
Q 3078 4259 3425 4131 
Q 3600 4066 3659 4066 
Q 3719 4066 3761 4120 
Q 3803 4175 3813 4334 
L 3928 4334 
z
" transform="scale(0.015625)"/>
      </defs>
      <use xlink:href="#TimesNewRomanPSMT-50"/>
      <use xlink:href="#TimesNewRomanPSMT-65" x="55.615234"/>
      <use xlink:href="#TimesNewRomanPSMT-61" x="100"/>
      <use xlink:href="#TimesNewRomanPSMT-6b" x="144.384766"/>
      <use xlink:href="#TimesNewRomanPSMT-20" x="194.384766"/>
      <use xlink:href="#TimesNewRomanPSMT-72" x="219.384766"/>
      <use xlink:href="#TimesNewRomanPSMT-65" x="252.685547"/>
      <use xlink:href="#TimesNewRomanPSMT-73" x="297.070312"/>
      <use xlink:href="#TimesNewRomanPSMT-65" x="335.986328"/>
      <use xlink:href="#TimesNewRomanPSMT-72" x="380.371094"/>
      <use xlink:href="#TimesNewRomanPSMT-76" x="413.671875"/>
      <use xlink:href="#TimesNewRomanPSMT-65" x="463.671875"/>
      <use xlink:href="#TimesNewRomanPSMT-64" x="508.056641"/>
      <use xlink:href="#TimesNewRomanPSMT-20" x="558.056641"/>
      <use xlink:href="#TimesNewRomanPSMT-6d" x="583.056641"/>
      <use xlink:href="#TimesNewRomanPSMT-65" x="660.839844"/>
      <use xlink:href="#TimesNewRomanPSMT-6d" x="705.224609"/>
      <use xlink:href="#TimesNewRomanPSMT-6f" x="783.007812"/>
      <use xlink:href="#TimesNewRomanPSMT-72" x="833.007812"/>
      <use xlink:href="#TimesNewRomanPSMT-79" x="866.308594"/>
      <use xlink:href="#TimesNewRomanPSMT-20" x="916.308594"/>
      <use xlink:href="#TimesNewRomanPSMT-28" x="941.308594"/>
      <use xlink:href="#TimesNewRomanPSMT-47" x="974.609375"/>
      <use xlink:href="#TimesNewRomanPSMT-69" x="1046.826172"/>
      <use xlink:href="#TimesNewRomanPSMT-42" x="1074.609375"/>
      <use xlink:href="#TimesNewRomanPSMT-29" x="1141.308594"/>
     </g>
    </g>
   </g>
   <g id="LineCollection_3">
    <path clip-path="url(#pba9e73feb8)" style="fill: none; stroke: #000000; stroke-width: 0.9"/>
    <path clip-path="url(#pba9e73feb8)" style="fill: none; stroke: #000000; stroke-width: 0.9"/>
    <path clip-path="url(#pba9e73feb8)" style="fill: none; stroke: #000000; stroke-width: 0.9"/>
    <path d="M 125.007107 277.884381 
L 125.007107 277.884381 
" clip-path="url(#pba9e73feb8)" style="fill: none; stroke: #000000; stroke-width: 0.9"/>
    <path d="M 285.131074 298.548278 
L 285.131074 298.548278 
" clip-path="url(#pba9e73feb8)" style="fill: none; stroke: #000000; stroke-width: 0.9"/>
    <path clip-path="url(#pba9e73feb8)" style="fill: none; stroke: #000000; stroke-width: 0.9"/>
    <path clip-path="url(#pba9e73feb8)" style="fill: none; stroke: #000000; stroke-width: 0.9"/>
   </g>
   <g id="line2d_30">
    <g clip-path="url(#pba9e73feb8)">
     <use xlink:href="#m3afaf34a8c" x="125.007107" y="277.884381" style="stroke: #000000"/>
     <use xlink:href="#m3afaf34a8c" x="285.131074" y="298.548278" style="stroke: #000000"/>
    </g>
   </g>
   <g id="line2d_31">
    <g clip-path="url(#pba9e73feb8)">
     <use xlink:href="#m3afaf34a8c" x="125.007107" y="277.884381" style="stroke: #000000"/>
     <use xlink:href="#m3afaf34a8c" x="285.131074" y="298.548278" style="stroke: #000000"/>
    </g>
   </g>
   <g id="patch_30">
    <path d="M 46.546364 474.684381 
L 46.546364 268.044381 
" style="fill: none; stroke: #000000; stroke-width: 0.8; stroke-linejoin: miter; stroke-linecap: square"/>
   </g>
   <g id="patch_31">
    <path d="M 46.546364 474.684381 
L 363.591818 474.684381 
" style="fill: none; stroke: #000000; stroke-width: 0.8; stroke-linejoin: miter; stroke-linecap: square"/>
   </g>
   <g id="text_31">
    <!-- (c) -->
    <g transform="translate(2.16 257.425813) scale(0.11 -0.11)">
     <defs>
      <path id="TimesNewRomanPS-BoldMT-63" d="M 2600 753 
L 2697 678 
Q 2491 291 2183 101 
Q 1875 -88 1528 -88 
Q 944 -88 594 353 
Q 244 794 244 1413 
Q 244 2009 563 2463 
Q 947 3009 1622 3009 
Q 2075 3009 2342 2781 
Q 2609 2553 2609 2272 
Q 2609 2094 2501 1987 
Q 2394 1881 2219 1881 
Q 2034 1881 1914 2003 
Q 1794 2125 1766 2438 
Q 1747 2634 1675 2713 
Q 1603 2791 1506 2791 
Q 1356 2791 1250 2631 
Q 1088 2391 1088 1894 
Q 1088 1481 1219 1104 
Q 1350 728 1578 544 
Q 1750 409 1984 409 
Q 2138 409 2275 481 
Q 2413 553 2600 753 
z
" transform="scale(0.015625)"/>
     </defs>
     <use xlink:href="#TimesNewRomanPS-BoldMT-28"/>
     <use xlink:href="#TimesNewRomanPS-BoldMT-63" x="33.300781"/>
     <use xlink:href="#TimesNewRomanPS-BoldMT-29" x="77.685547"/>
    </g>
   </g>
  </g>
  <g id="axes_4">
   <g id="patch_32">
    <path d="M 427.000909 474.684381 
L 744.046364 474.684381 
L 744.046364 268.044381 
L 427.000909 268.044381 
z
" style="fill: #ffffff"/>
   </g>
   <g id="patch_33">
    <path d="M 441.412066 474.684381 
L 475.320671 474.684381 
L 475.320671 474.684381 
L 441.412066 474.684381 
z
" clip-path="url(#p3096812c1d)" style="fill: #0072b2"/>
   </g>
   <g id="patch_34">
    <path d="M 483.797822 474.684381 
L 517.706427 474.684381 
L 517.706427 474.684381 
L 483.797822 474.684381 
z
" clip-path="url(#p3096812c1d)" style="fill: #0072b2"/>
   </g>
   <g id="patch_35">
    <path d="M 526.183578 474.684381 
L 560.092183 474.684381 
L 560.092183 474.684381 
L 526.183578 474.684381 
z
" clip-path="url(#p3096812c1d)" style="fill: #d55e00"/>
   </g>
   <g id="patch_36">
    <path d="M 568.569334 474.684381 
L 602.477939 474.684381 
L 602.477939 294.997425 
L 568.569334 294.997425 
z
" clip-path="url(#p3096812c1d)" style="fill: #009e73"/>
   </g>
   <g id="patch_37">
    <path d="M 610.95509 474.684381 
L 644.863695 474.684381 
L 644.863695 294.997425 
L 610.95509 294.997425 
z
" clip-path="url(#p3096812c1d)" style="fill: #009e73"/>
   </g>
   <g id="patch_38">
    <path d="M 653.340846 474.684381 
L 687.249451 474.684381 
L 687.249451 474.684381 
L 653.340846 474.684381 
z
" clip-path="url(#p3096812c1d)" style="fill: #009e73"/>
   </g>
   <g id="patch_39">
    <path d="M 695.726602 474.684381 
L 729.635207 474.684381 
L 729.635207 474.684381 
L 695.726602 474.684381 
z
" clip-path="url(#p3096812c1d)" style="fill: #009e73"/>
   </g>
   <g id="matplotlib.axis_7">
    <g id="xtick_7">
     <g id="line2d_32">
      <g>
       <use xlink:href="#m5815069ebf" x="458.366368" y="474.684381" style="stroke: #000000; stroke-width: 0.8"/>
      </g>
     </g>
     <g id="text_32">
      <!-- 14B PP2+FSDP -->
      <g transform="translate(414.896443 515.985464) rotate(-35) scale(0.08 -0.08)">
       <use xlink:href="#TimesNewRomanPSMT-31"/>
       <use xlink:href="#TimesNewRomanPSMT-34" x="50"/>
       <use xlink:href="#TimesNewRomanPSMT-42" x="100"/>
       <use xlink:href="#TimesNewRomanPSMT-20" x="166.699219"/>
       <use xlink:href="#TimesNewRomanPSMT-50" x="191.699219"/>
       <use xlink:href="#TimesNewRomanPSMT-50" x="247.314453"/>
       <use xlink:href="#TimesNewRomanPSMT-32" x="302.929688"/>
       <use xlink:href="#TimesNewRomanPSMT-2b" x="352.929688"/>
       <use xlink:href="#TimesNewRomanPSMT-46" x="409.326172"/>
       <use xlink:href="#TimesNewRomanPSMT-53" x="464.941406"/>
       <use xlink:href="#TimesNewRomanPSMT-44" x="520.556641"/>
       <use xlink:href="#TimesNewRomanPSMT-50" x="592.773438"/>
      </g>
     </g>
    </g>
    <g id="xtick_8">
     <g id="line2d_33">
      <g>
       <use xlink:href="#m5815069ebf" x="500.752124" y="474.684381" style="stroke: #000000; stroke-width: 0.8"/>
      </g>
     </g>
     <g id="text_33">
      <!-- 14B PP4+FSDP -->
      <g transform="translate(457.282199 515.985464) rotate(-35) scale(0.08 -0.08)">
       <use xlink:href="#TimesNewRomanPSMT-31"/>
       <use xlink:href="#TimesNewRomanPSMT-34" x="50"/>
       <use xlink:href="#TimesNewRomanPSMT-42" x="100"/>
       <use xlink:href="#TimesNewRomanPSMT-20" x="166.699219"/>
       <use xlink:href="#TimesNewRomanPSMT-50" x="191.699219"/>
       <use xlink:href="#TimesNewRomanPSMT-50" x="247.314453"/>
       <use xlink:href="#TimesNewRomanPSMT-34" x="302.929688"/>
       <use xlink:href="#TimesNewRomanPSMT-2b" x="352.929688"/>
       <use xlink:href="#TimesNewRomanPSMT-46" x="409.326172"/>
       <use xlink:href="#TimesNewRomanPSMT-53" x="464.941406"/>
       <use xlink:href="#TimesNewRomanPSMT-44" x="520.556641"/>
       <use xlink:href="#TimesNewRomanPSMT-50" x="592.773438"/>
      </g>
     </g>
    </g>
    <g id="xtick_9">
     <g id="line2d_34">
      <g>
       <use xlink:href="#m5815069ebf" x="543.13788" y="474.684381" style="stroke: #000000; stroke-width: 0.8"/>
      </g>
     </g>
     <g id="text_34">
      <!-- 30B PP4 EP2 DP1 -->
      <g transform="translate(493.175151 520.531774) rotate(-35) scale(0.08 -0.08)">
       <defs>
        <path id="TimesNewRomanPSMT-45" d="M 1338 4006 
L 1338 2331 
L 2269 2331 
Q 2631 2331 2753 2441 
Q 2916 2584 2934 2947 
L 3050 2947 
L 3050 1472 
L 2934 1472 
Q 2891 1781 2847 1869 
Q 2791 1978 2662 2040 
Q 2534 2103 2269 2103 
L 1338 2103 
L 1338 706 
Q 1338 425 1363 364 
Q 1388 303 1450 267 
Q 1513 231 1688 231 
L 2406 231 
Q 2766 231 2928 281 
Q 3091 331 3241 478 
Q 3434 672 3638 1063 
L 3763 1063 
L 3397 0 
L 131 0 
L 131 116 
L 281 116 
Q 431 116 566 188 
Q 666 238 702 338 
Q 738 438 738 747 
L 738 3500 
Q 738 3903 656 3997 
Q 544 4122 281 4122 
L 131 4122 
L 131 4238 
L 3397 4238 
L 3444 3309 
L 3322 3309 
Q 3256 3644 3176 3769 
Q 3097 3894 2941 3959 
Q 2816 4006 2500 4006 
L 1338 4006 
z
" transform="scale(0.015625)"/>
       </defs>
       <use xlink:href="#TimesNewRomanPSMT-33"/>
       <use xlink:href="#TimesNewRomanPSMT-30" x="50"/>
       <use xlink:href="#TimesNewRomanPSMT-42" x="100"/>
       <use xlink:href="#TimesNewRomanPSMT-20" x="166.699219"/>
       <use xlink:href="#TimesNewRomanPSMT-50" x="191.699219"/>
       <use xlink:href="#TimesNewRomanPSMT-50" x="247.314453"/>
       <use xlink:href="#TimesNewRomanPSMT-34" x="302.929688"/>
       <use xlink:href="#TimesNewRomanPSMT-20" x="352.929688"/>
       <use xlink:href="#TimesNewRomanPSMT-45" x="377.929688"/>
       <use xlink:href="#TimesNewRomanPSMT-50" x="439.013672"/>
       <use xlink:href="#TimesNewRomanPSMT-32" x="494.628906"/>
       <use xlink:href="#TimesNewRomanPSMT-20" x="544.628906"/>
       <use xlink:href="#TimesNewRomanPSMT-44" x="569.628906"/>
       <use xlink:href="#TimesNewRomanPSMT-50" x="641.845703"/>
       <use xlink:href="#TimesNewRomanPSMT-31" x="697.460938"/>
      </g>
     </g>
    </g>
    <g id="xtick_10">
     <g id="line2d_35">
      <g>
       <use xlink:href="#m5815069ebf" x="585.523636" y="474.684381" style="stroke: #000000; stroke-width: 0.8"/>
      </g>
     </g>
     <g id="text_35">
      <!-- 8B PP2+FSDP -->
      <g transform="translate(545.330319 513.691158) rotate(-35) scale(0.08 -0.08)">
       <use xlink:href="#TimesNewRomanPSMT-38"/>
       <use xlink:href="#TimesNewRomanPSMT-42" x="50"/>
       <use xlink:href="#TimesNewRomanPSMT-20" x="116.699219"/>
       <use xlink:href="#TimesNewRomanPSMT-50" x="141.699219"/>
       <use xlink:href="#TimesNewRomanPSMT-50" x="197.314453"/>
       <use xlink:href="#TimesNewRomanPSMT-32" x="252.929688"/>
       <use xlink:href="#TimesNewRomanPSMT-2b" x="302.929688"/>
       <use xlink:href="#TimesNewRomanPSMT-46" x="359.326172"/>
       <use xlink:href="#TimesNewRomanPSMT-53" x="414.941406"/>
       <use xlink:href="#TimesNewRomanPSMT-44" x="470.556641"/>
       <use xlink:href="#TimesNewRomanPSMT-50" x="542.773438"/>
      </g>
     </g>
    </g>
    <g id="xtick_11">
     <g id="line2d_36">
      <g>
       <use xlink:href="#m5815069ebf" x="627.909392" y="474.684381" style="stroke: #000000; stroke-width: 0.8"/>
      </g>
     </g>
     <g id="text_36">
      <!-- 8B PP4+FSDP -->
      <g transform="translate(587.716075 513.691158) rotate(-35) scale(0.08 -0.08)">
       <use xlink:href="#TimesNewRomanPSMT-38"/>
       <use xlink:href="#TimesNewRomanPSMT-42" x="50"/>
       <use xlink:href="#TimesNewRomanPSMT-20" x="116.699219"/>
       <use xlink:href="#TimesNewRomanPSMT-50" x="141.699219"/>
       <use xlink:href="#TimesNewRomanPSMT-50" x="197.314453"/>
       <use xlink:href="#TimesNewRomanPSMT-34" x="252.929688"/>
       <use xlink:href="#TimesNewRomanPSMT-2b" x="302.929688"/>
       <use xlink:href="#TimesNewRomanPSMT-46" x="359.326172"/>
       <use xlink:href="#TimesNewRomanPSMT-53" x="414.941406"/>
       <use xlink:href="#TimesNewRomanPSMT-44" x="470.556641"/>
       <use xlink:href="#TimesNewRomanPSMT-50" x="542.773438"/>
      </g>
     </g>
    </g>
    <g id="xtick_12">
     <g id="line2d_37">
      <g>
       <use xlink:href="#m5815069ebf" x="670.295148" y="474.684381" style="stroke: #000000; stroke-width: 0.8"/>
      </g>
     </g>
     <g id="text_37">
      <!-- 8B FSDP-only -->
      <g transform="translate(630.521234 513.391464) rotate(-35) scale(0.08 -0.08)">
       <defs>
        <path id="TimesNewRomanPSMT-2d" d="M 259 1672 
L 1875 1672 
L 1875 1200 
L 259 1200 
L 259 1672 
z
" transform="scale(0.015625)"/>
        <path id="TimesNewRomanPSMT-6c" d="M 1184 4444 
L 1184 647 
Q 1184 378 1223 290 
Q 1263 203 1344 158 
Q 1425 113 1647 113 
L 1647 0 
L 244 0 
L 244 113 
Q 441 113 512 153 
Q 584 194 625 287 
Q 666 381 666 647 
L 666 3247 
Q 666 3731 644 3842 
Q 622 3953 573 3993 
Q 525 4034 450 4034 
Q 369 4034 244 3984 
L 191 4094 
L 1044 4444 
L 1184 4444 
z
" transform="scale(0.015625)"/>
       </defs>
       <use xlink:href="#TimesNewRomanPSMT-38"/>
       <use xlink:href="#TimesNewRomanPSMT-42" x="50"/>
       <use xlink:href="#TimesNewRomanPSMT-20" x="116.699219"/>
       <use xlink:href="#TimesNewRomanPSMT-46" x="141.699219"/>
       <use xlink:href="#TimesNewRomanPSMT-53" x="197.314453"/>
       <use xlink:href="#TimesNewRomanPSMT-44" x="252.929688"/>
       <use xlink:href="#TimesNewRomanPSMT-50" x="325.146484"/>
       <use xlink:href="#TimesNewRomanPSMT-2d" x="380.761719"/>
       <use xlink:href="#TimesNewRomanPSMT-6f" x="414.0625"/>
       <use xlink:href="#TimesNewRomanPSMT-6e" x="464.0625"/>
       <use xlink:href="#TimesNewRomanPSMT-6c" x="514.0625"/>
       <use xlink:href="#TimesNewRomanPSMT-79" x="541.845703"/>
      </g>
     </g>
    </g>
    <g id="xtick_13">
     <g id="line2d_38">
      <g>
       <use xlink:href="#m5815069ebf" x="712.680904" y="474.684381" style="stroke: #000000; stroke-width: 0.8"/>
      </g>
     </g>
     <g id="text_38">
      <!-- 8B PP2+VPP2+FSDP -->
      <g transform="translate(653.494523 526.990245) rotate(-35) scale(0.08 -0.08)">
       <defs>
        <path id="TimesNewRomanPSMT-56" d="M 4544 4238 
L 4544 4122 
Q 4319 4081 4203 3978 
Q 4038 3825 3909 3509 
L 2431 -97 
L 2316 -97 
L 728 3556 
Q 606 3838 556 3900 
Q 478 3997 364 4051 
Q 250 4106 56 4122 
L 56 4238 
L 1788 4238 
L 1788 4122 
Q 1494 4094 1406 4022 
Q 1319 3950 1319 3838 
Q 1319 3681 1463 3350 
L 2541 866 
L 3541 3319 
Q 3688 3681 3688 3822 
Q 3688 3913 3597 3995 
Q 3506 4078 3291 4113 
Q 3275 4116 3238 4122 
L 3238 4238 
L 4544 4238 
z
" transform="scale(0.015625)"/>
       </defs>
       <use xlink:href="#TimesNewRomanPSMT-38"/>
       <use xlink:href="#TimesNewRomanPSMT-42" x="50"/>
       <use xlink:href="#TimesNewRomanPSMT-20" x="116.699219"/>
       <use xlink:href="#TimesNewRomanPSMT-50" x="141.699219"/>
       <use xlink:href="#TimesNewRomanPSMT-50" x="197.314453"/>
       <use xlink:href="#TimesNewRomanPSMT-32" x="252.929688"/>
       <use xlink:href="#TimesNewRomanPSMT-2b" x="302.929688"/>
       <use xlink:href="#TimesNewRomanPSMT-56" x="359.326172"/>
       <use xlink:href="#TimesNewRomanPSMT-50" x="431.542969"/>
       <use xlink:href="#TimesNewRomanPSMT-50" x="487.158203"/>
       <use xlink:href="#TimesNewRomanPSMT-32" x="542.773438"/>
       <use xlink:href="#TimesNewRomanPSMT-2b" x="592.773438"/>
       <use xlink:href="#TimesNewRomanPSMT-46" x="649.169922"/>
       <use xlink:href="#TimesNewRomanPSMT-53" x="704.785156"/>
       <use xlink:href="#TimesNewRomanPSMT-44" x="760.400391"/>
       <use xlink:href="#TimesNewRomanPSMT-50" x="832.617188"/>
      </g>
     </g>
    </g>
   </g>
   <g id="matplotlib.axis_8">
    <g id="ytick_20">
     <g id="line2d_39">
      <g>
       <use xlink:href="#m5c8912c4a0" x="427.000909" y="474.684381" style="stroke: #000000; stroke-width: 0.8"/>
      </g>
     </g>
     <g id="text_39">
      <!-- error -->
      <g transform="translate(404.458409 477.461881) scale(0.08 -0.08)">
       <use xlink:href="#TimesNewRomanPSMT-65"/>
       <use xlink:href="#TimesNewRomanPSMT-72" x="44.384766"/>
       <use xlink:href="#TimesNewRomanPSMT-72" x="77.685547"/>
       <use xlink:href="#TimesNewRomanPSMT-6f" x="110.986328"/>
       <use xlink:href="#TimesNewRomanPSMT-72" x="160.986328"/>
      </g>
     </g>
    </g>
    <g id="ytick_21">
     <g id="line2d_40">
      <g>
       <use xlink:href="#m5c8912c4a0" x="427.000909" y="294.997425" style="stroke: #000000; stroke-width: 0.8"/>
      </g>
     </g>
     <g id="text_40">
      <!-- ok -->
      <g transform="translate(412.000909 297.774925) scale(0.08 -0.08)">
       <use xlink:href="#TimesNewRomanPSMT-6f"/>
       <use xlink:href="#TimesNewRomanPSMT-6b" x="50"/>
      </g>
     </g>
    </g>
    <g id="text_41">
     <!-- Feasibility -->
     <g transform="translate(398.516378 390.364225) rotate(-90) scale(0.09 -0.09)">
      <defs>
       <path id="TimesNewRomanPSMT-62" d="M 984 2369 
Q 1400 2947 1881 2947 
Q 2322 2947 2650 2570 
Q 2978 2194 2978 1541 
Q 2978 778 2472 313 
Q 2038 -88 1503 -88 
Q 1253 -88 995 3 
Q 738 94 469 275 
L 469 3241 
Q 469 3728 445 3840 
Q 422 3953 372 3993 
Q 322 4034 247 4034 
Q 159 4034 28 3984 
L -16 4094 
L 844 4444 
L 984 4444 
L 984 2369 
z
M 984 2169 
L 984 456 
Q 1144 300 1314 220 
Q 1484 141 1663 141 
Q 1947 141 2192 453 
Q 2438 766 2438 1363 
Q 2438 1913 2192 2208 
Q 1947 2503 1634 2503 
Q 1469 2503 1303 2419 
Q 1178 2356 984 2169 
z
" transform="scale(0.015625)"/>
      </defs>
      <use xlink:href="#TimesNewRomanPSMT-46"/>
      <use xlink:href="#TimesNewRomanPSMT-65" x="55.615234"/>
      <use xlink:href="#TimesNewRomanPSMT-61" x="100"/>
      <use xlink:href="#TimesNewRomanPSMT-73" x="144.384766"/>
      <use xlink:href="#TimesNewRomanPSMT-69" x="183.300781"/>
      <use xlink:href="#TimesNewRomanPSMT-62" x="211.083984"/>
      <use xlink:href="#TimesNewRomanPSMT-69" x="261.083984"/>
      <use xlink:href="#TimesNewRomanPSMT-6c" x="288.867188"/>
      <use xlink:href="#TimesNewRomanPSMT-69" x="316.650391"/>
      <use xlink:href="#TimesNewRomanPSMT-74" x="344.433594"/>
      <use xlink:href="#TimesNewRomanPSMT-79" x="372.216797"/>
     </g>
    </g>
   </g>
   <g id="patch_40">
    <path d="M 427.000909 474.684381 
L 427.000909 268.044381 
" style="fill: none; stroke: #000000; stroke-width: 0.8; stroke-linejoin: miter; stroke-linecap: square"/>
   </g>
   <g id="patch_41">
    <path d="M 427.000909 474.684381 
L 744.046364 474.684381 
" style="fill: none; stroke: #000000; stroke-width: 0.8; stroke-linejoin: miter; stroke-linecap: square"/>
   </g>
   <g id="text_42">
    <!-- (d) -->
    <g transform="translate(382.614545 257.425813) scale(0.11 -0.11)">
     <defs>
      <path id="TimesNewRomanPS-BoldMT-64" d="M 3056 4238 
L 3056 875 
Q 3056 534 3075 472 
Q 3100 369 3170 319 
Q 3241 269 3416 256 
L 3416 153 
L 2181 -88 
L 2181 375 
Q 1959 106 1786 9 
Q 1613 -88 1394 -88 
Q 834 -88 509 413 
Q 247 819 247 1409 
Q 247 1881 409 2254 
Q 572 2628 855 2818 
Q 1138 3009 1463 3009 
Q 1672 3009 1834 2928 
Q 1997 2847 2181 2644 
L 2181 3525 
Q 2181 3859 2153 3928 
Q 2116 4019 2041 4062 
Q 1966 4106 1759 4106 
L 1759 4238 
L 3056 4238 
z
M 2181 2256 
Q 1950 2700 1616 2700 
Q 1500 2700 1425 2638 
Q 1309 2541 1236 2297 
Q 1163 2053 1163 1550 
Q 1163 997 1244 731 
Q 1325 466 1466 347 
Q 1538 288 1663 288 
Q 1938 288 2181 719 
L 2181 2256 
z
" transform="scale(0.015625)"/>
     </defs>
     <use xlink:href="#TimesNewRomanPS-BoldMT-28"/>
     <use xlink:href="#TimesNewRomanPS-BoldMT-64" x="33.300781"/>
     <use xlink:href="#TimesNewRomanPS-BoldMT-29" x="88.916016"/>
    </g>
   </g>
  </g>
 </g>
 <defs>
  <clipPath id="p877a986934">
   <rect x="46.546364" y="20.076381" width="317.045455" height="206.64"/>
  </clipPath>
  <clipPath id="p54f096b5b8">
   <rect x="427.000909" y="20.076381" width="317.045455" height="206.64"/>
  </clipPath>
  <clipPath id="pba9e73feb8">
   <rect x="46.546364" y="268.044381" width="317.045455" height="206.64"/>
  </clipPath>
  <clipPath id="p3096812c1d">
   <rect x="427.000909" y="268.044381" width="317.045455" height="206.64"/>
  </clipPath>
 </defs>
</svg>
